<?xml version="1.0" ?><!DOCTYPE svg  PUBLIC '-//W3C//DTD SVG 1.1//EN'  'http://www.w3.org/Graphics/SVG/1.1/DTD/svg11.dtd'><svg enable-background="new 0 0 1024 1024" height="1024px" id="RSS" version="1.1" viewBox="0 0 1024 1024" width="1024px" xml:space="preserve" xmlns="http://www.w3.org/2000/svg" xmlns:xlink="http://www.w3.org/1999/xlink"><g id="Background"><g id="bg_1_"><path d="M75.094,306.009c0-27.5,19.413-61.375,43.14-75.277L468.861,25.286c23.727-13.902,62.553-13.902,86.28,0    l350.625,205.445c23.729,13.902,43.141,47.777,43.141,75.277v412c0,27.5-19.412,61.375-43.141,75.277L555.141,998.731    c-23.727,13.901-62.553,13.901-86.28,0L118.234,793.286c-23.727-13.902-43.14-47.777-43.14-75.277V306.009z" fill="#FC8900"/></g><path d="M938.092,262.262c0,0-1.043-2.021-3.287-5.308   c-1.818-2.664-3.744-5.561-6.111-8.186c-5-5.546-6.697-6.941-7.377-7.551c-2.637-2.355-5.848-4.801-8.945-6.617   c-2.26-1.325-362.889-212.631-362.889-212.631s-6.123-3.544-11.67-5.321c-5.547-1.778-9.457-2.56-13.51-3.129   s-9.672-0.854-13.298-0.854c-3.626,0-12.089,0.711-15.716,1.565c-3.626,0.853-6.275,1.511-7.235,1.831s-3.173,1.093-4.08,1.387   c-0.905,0.293-5.093,2.16-5.333,2.293c-0.239,0.133-1.643,0.776-2.431,1.238c-0.789,0.462-351.617,206.025-351.617,206.025   s-14.797,8.097-20.628,13.074c-2.497,2.131-5.266,4.867-7.658,7.582c-3.196,3.627-5.807,7.203-7.026,9.093   c-0.923,1.43-2.28,3.533-3.494,5.707c-1.577,2.825-3.032,5.837-3.667,7.147c-1.162,2.398-3.293,8.053-3.827,9.76   s-1.547,5.534-1.707,6.436c-0.042,0.234-0.693,3.521-0.747,3.911c-0.053,0.391-0.44,2.92-0.533,4.267   c-0.033,0.48-0.211,2.897-0.212,2.969c-0.001,0.072-0.001,429.511-0.001,429.511s0.349,5.079,0.427,5.635   c0.028,0.203,0.453,3.433,0.782,4.836c0.213,0.91,0.64,2.987,0.924,3.982c0.284,0.995,0.729,2.636,0.96,3.342   c0.213,0.653,0.96,2.917,1.209,3.591c0.249,0.675,1.25,3.248,1.529,3.912c0.286,0.68,1.813,4.018,1.92,4.23   C82.951,756.204,938.092,262.262,938.092,262.262z" enable-background="new    " fill="#FFFFFF" id="bg-light" opacity="0.2"/></g><g id="RSS_1_"><circle cx="405.332" cy="640.024" fill="#FFFFFF" r="60.589"/><path d="M344.747,413.022v81.92c209.068,17.065,203.617,205.671,203.617,205.671h84.477   C612.362,405.306,344.747,413.022,344.747,413.022z" fill="#FFFFFF"/><path d="M344.747,266.359v85.223c0,0,325.121-0.817,349.013,349.031h86.473   C780.233,700.613,773.973,289.51,344.747,266.359z" fill="#FFFFFF"/></g></svg>